<?xml version="1.0" encoding="utf-8"?>
<!-- Uploaded to: SVG Repo, www.svgrepo.com, Generator: SVG Repo Mixer Tools -->
<svg width="800px" height="800px" viewBox="0 0 1024 1024" class="icon"  version="1.1" xmlns="http://www.w3.org/2000/svg"><path d="M658.994 687.877c-5.911 46.623-14.996 91.553-27.025 134.227l-8.635 52.879 148.772 41.658V775.203l-113.112-87.326z" fill="#0DB14B" /><path d="M685.76 854.175l8.634-52.881c6.654-23.607 12.313-47.969 17.126-72.864l-52.526-40.553c-5.911 46.623-14.996 91.553-27.025 134.227l-8.635 52.879 148.772 41.658v-38.289l-86.346-24.177z" fill="#030504" /><path d="M385.911 686.599l-134.016 88.604v141.438l162.818-41.658-13.106-98.222c-6.598-29.2-11.829-59.32-15.696-90.162z" fill="#0DB14B" /><path d="M401.607 776.76c-6.598-29.199-11.828-59.319-15.696-90.161l-35.05 23.172c2.688 15.616 5.708 31.034 9.13 46.181l13.105 98.223-121.202 31.009v31.457l162.818-41.658-13.105-98.223z" fill="#030504" /><path d="M357.292 583.268c0 102.568 15.456 199.748 43.084 286.667 38.053 119.71 206.269 119.71 244.321 0 27.63-86.92 43.086-184.099 43.086-286.667 0-209.343-64.388-396.244-165.246-519.268C421.68 187.024 357.292 373.925 357.292 583.268z" fill="#FF3B30" /><path d="M619.489 351H410.422c-8.246 0-14.933-6.254-14.933-14.5s6.687-14.5 14.933-14.5h209.067c8.246 0 14.933 6.254 14.933 14.5s-6.687 14.5-14.933 14.5z" fill="#152B3C" /><path d="M522.537 64.281V960c51.568 0 103.134-29.926 122.16-89.782 27.63-86.921 43.086-184.101 43.086-286.667 0-209.342-64.389-396.245-165.246-519.27z" fill="#030504" /><path d="M560.966 528.656m-64.782 0a64.782 64.782 0 1 0 129.564 0 64.782 64.782 0 1 0-129.564 0Z" fill="#030504" /><path d="M519.349 507.848m-64.782 0a64.782 64.782 0 1 0 129.564 0 64.782 64.782 0 1 0-129.564 0Z" fill="#EEEEEE" /></svg>